<svg width="13" height="13" viewBox="0 0 13 13" fill="none" xmlns="http://www.w3.org/2000/svg">
<path d="M11.1193 11.2789V7.60698C11.1193 5.80236 10.7363 4.42383 8.66043 4.42383C7.65957 4.42383 6.99233 4.97524 6.7205 5.50159H6.69578V4.58675H4.73114V11.2789H6.78228V7.95788C6.78228 7.08063 6.94291 6.24098 8.00555 6.24098C9.05583 6.24098 9.06818 7.23101 9.06818 8.008V11.2663H11.1193V11.2789Z" fill="white"/>
<path d="M1.39642 4.58646H3.44756V11.2786H1.39642V4.58646Z" fill="white"/>
<path d="M2.42125 1.25327C1.76637 1.25327 1.23505 1.79214 1.23505 2.45635C1.23505 3.12055 1.76637 3.67196 2.42125 3.67196C3.07613 3.67196 3.60745 3.12055 3.60745 2.45635C3.60745 1.79214 3.07613 1.25327 2.42125 1.25327Z" fill="white"/>
</svg>
