<svg width="18" height="19" viewBox="0 0 18 19" fill="none" xmlns="http://www.w3.org/2000/svg">
<g clip-path="url(#clip0_3528_11140)">
<path d="M17.1866 5.35174C17.1447 4.38243 16.999 3.72048 16.7859 3.14135C16.5695 2.53372 16.2302 1.98335 15.7917 1.52843C15.3613 1.06518 14.8402 0.706553 14.2651 0.477844C13.7168 0.252886 13.0903 0.0990702 12.1729 0.0550236C11.2537 0.0105601 10.96 0 8.61923 0C6.27845 0 5.98477 0.0105601 5.06558 0.0547457C4.14811 0.0990702 3.52168 0.253025 2.97338 0.478122C2.39825 0.706692 1.8773 1.06518 1.44671 1.52843C1.00822 1.98321 0.668774 2.53359 0.452294 3.14121C0.239364 3.72048 0.093773 4.38243 0.0520815 5.3516C0.00999544 6.32285 0 6.63298 0 9.10599C0 11.5791 0.00999544 11.8894 0.0520815 12.8605C0.0939045 13.8297 0.239628 14.4916 0.452688 15.0709C0.669037 15.6784 1.00836 16.2289 1.44684 16.6837C1.8773 17.1469 2.39838 17.5054 2.97351 17.734C3.52168 17.9592 4.14824 18.113 5.06572 18.1574C5.98503 18.2017 6.27858 18.2121 8.61936 18.2121C10.9601 18.2121 11.2538 18.2017 12.173 18.1574C13.0905 18.113 13.7169 17.9592 14.2652 17.734C15.423 17.261 16.3382 16.2941 16.7859 15.0709C16.9991 14.4916 17.1447 13.8297 17.1866 12.8605C17.2285 11.8893 17.2385 11.5791 17.2385 9.10612C17.2385 6.63298 17.2285 6.32285 17.1866 5.35174ZM15.6351 12.7859C15.5968 13.6738 15.4564 14.1559 15.3384 14.4768C15.0484 15.271 14.4543 15.8986 13.7026 16.205C13.3989 16.3296 12.9425 16.478 12.1021 16.5185C11.1934 16.5624 10.9208 16.5715 8.61923 16.5715C6.31751 16.5715 6.04501 16.5624 5.13621 16.5185C4.29594 16.478 3.83956 16.3296 3.53576 16.205C3.16145 16.059 2.82279 15.8262 2.54476 15.5237C2.25844 15.23 2.03815 14.8723 1.89992 14.4768C1.78195 14.1559 1.64149 13.6738 1.60322 12.7859C1.56179 11.8258 1.55298 11.5377 1.55298 9.10626C1.55298 6.67467 1.56179 6.38677 1.60322 5.42649C1.64162 4.53861 1.78195 4.05646 1.89992 3.73563C2.03815 3.34004 2.25857 2.98225 2.54476 2.68851C2.82279 2.38602 3.16145 2.15328 3.53589 2.00739C3.83956 1.88261 4.29594 1.73435 5.13634 1.69378C6.04514 1.65001 6.31778 1.6407 8.61923 1.6407H8.61909C10.9205 1.6407 11.1932 1.65001 12.1021 1.69392C12.9425 1.73435 13.3988 1.88275 13.7026 2.00739C14.0769 2.15342 14.4155 2.38616 14.6936 2.68851C14.9799 2.98225 15.2002 3.34004 15.3383 3.73563C15.4564 4.05646 15.5968 4.53861 15.6351 5.42649C15.6765 6.38663 15.6853 6.67467 15.6853 9.10612C15.6853 11.5377 15.6767 11.8256 15.6351 12.7859Z" fill="#282828"/>
<path d="M8.61351 4.43018C6.1691 4.43018 4.1875 6.52385 4.1875 9.10635C4.1875 11.6888 6.1691 13.7824 8.61351 13.7824C11.0581 13.7824 13.0396 11.6888 13.0396 9.10635C13.0396 6.52385 11.0581 4.43018 8.61351 4.43018ZM8.61351 12.1417C7.02686 12.1415 5.74048 10.7826 5.74061 9.10621C5.74061 7.42993 7.02686 6.07088 8.61364 6.07088C10.2004 6.07102 11.4867 7.42993 11.4867 9.10621C11.4867 10.7826 10.2003 12.1417 8.61351 12.1417Z" fill="#282828"/>
<path d="M14.2523 4.24517C14.2523 4.84863 13.7892 5.33786 13.218 5.33786C12.6467 5.33786 12.1836 4.84863 12.1836 4.24517C12.1836 3.64158 12.6467 3.15234 13.218 3.15234C13.7892 3.15234 14.2523 3.64158 14.2523 4.24517Z" fill="#282828"/>
</g>
<defs>
<clipPath id="clip0_3528_11140">
<rect width="17.2385" height="18.2122" fill="white"/>
</clipPath>
</defs>
</svg>
