<svg width="19" height="19" viewBox="0 0 19 19" fill="none" xmlns="http://www.w3.org/2000/svg">
<path d="M18.383 18.6489V11.8186C18.383 8.46175 17.6705 5.89746 13.8091 5.89746C11.9474 5.89746 10.7062 6.92318 10.2005 7.90227H10.1546V6.20051H6.5V18.6489H10.3154V12.4714C10.3154 10.8395 10.6142 9.27765 12.5909 9.27765C14.5446 9.27765 14.5676 11.1193 14.5676 12.5646V18.6256H18.383V18.6489Z" fill="#282828"/>
<path d="M0.300781 6.20068H4.11622V18.6491H0.300781V6.20068Z" fill="#282828"/>
<path d="M2.20652 0C0.988338 0 0 1.0024 0 2.23792C0 3.47344 0.988338 4.49915 2.20652 4.49915C3.42471 4.49915 4.41304 3.47344 4.41304 2.23792C4.41304 1.0024 3.42471 0 2.20652 0Z" fill="#282828"/>
</svg>
