<svg width="10" height="10" viewBox="0 0 10 10" fill="none" xmlns="http://www.w3.org/2000/svg">
<g clip-path="url(#clip0_3599_1549)">
<path d="M9.23933 2.87703C9.21678 2.35594 9.13844 2.00009 9.0239 1.68875C8.90759 1.3621 8.72518 1.06623 8.48946 0.821668C8.25804 0.572628 7.97792 0.379834 7.66873 0.256883C7.37397 0.135949 7.03722 0.053259 6.54399 0.02958C6.04985 0.00567698 5.89197 0 4.63359 0C3.37522 0 3.21734 0.00567698 2.7232 0.0294306C2.22997 0.053259 1.89322 0.136023 1.59845 0.257033C1.28927 0.379909 1.00922 0.572628 0.777733 0.821668C0.542009 1.06615 0.359525 1.36203 0.243148 1.68868C0.12868 2.00009 0.0504113 2.35594 0.0279984 2.87696C0.00537343 3.39909 0 3.56581 0 4.89527C0 6.2248 0.00537343 6.3916 0.0279984 6.91366C0.050482 7.43467 0.128821 7.79053 0.24336 8.10194C0.359666 8.42852 0.54208 8.72447 0.777804 8.96895C1.00922 9.21799 1.28934 9.41071 1.59853 9.53358C1.89322 9.65467 2.23004 9.73736 2.72327 9.76119C3.21748 9.78501 3.37529 9.79062 4.63367 9.79062C5.89204 9.79062 6.04992 9.78501 6.54406 9.76119C7.03729 9.73736 7.37404 9.65467 7.66881 9.53358C8.2912 9.27932 8.78323 8.7595 9.0239 8.10194C9.13851 7.79053 9.21678 7.43467 9.23933 6.91366C9.26182 6.39153 9.26719 6.2248 9.26719 4.89535C9.26719 3.56581 9.26182 3.39909 9.23933 2.87703ZM8.40525 6.87355C8.38467 7.35086 8.30916 7.61006 8.24574 7.78254C8.08984 8.2095 7.77048 8.54691 7.36634 8.71162C7.20308 8.77862 6.95774 8.8584 6.50595 8.88013C6.01747 8.90374 5.8709 8.90867 4.63359 8.90867C3.39622 8.90867 3.24972 8.90374 2.76117 8.88013C2.30944 8.8584 2.0641 8.77862 1.90078 8.71162C1.69956 8.63311 1.5175 8.50799 1.36803 8.34538C1.21411 8.18747 1.09569 7.9952 1.02138 7.78254C0.957955 7.61006 0.882445 7.35086 0.86187 6.87355C0.839599 6.35739 0.834862 6.20254 0.834862 4.89542C0.834862 3.58822 0.839599 3.43345 0.86187 2.91722C0.882515 2.4399 0.957955 2.18071 1.02138 2.00823C1.09569 1.79557 1.21418 1.60322 1.36803 1.44531C1.5175 1.2827 1.69956 1.15758 1.90085 1.07915C2.0641 1.01207 2.30944 0.932369 2.76124 0.910557C3.24979 0.887027 3.39636 0.882023 4.63359 0.882023H4.63352C5.87076 0.882023 6.01732 0.887027 6.50595 0.910632C6.95774 0.932369 7.20301 1.01214 7.36634 1.07915C7.56756 1.15765 7.74962 1.28277 7.89909 1.44531C8.05301 1.60322 8.17143 1.79557 8.24567 2.00823C8.30916 2.18071 8.38467 2.4399 8.40525 2.91722C8.42752 3.43338 8.43226 3.58822 8.43226 4.89535C8.43226 6.20254 8.42759 6.35732 8.40525 6.87355Z" fill="white"/>
<path d="M4.63328 2.38153C3.31919 2.38153 2.25391 3.50707 2.25391 4.89538C2.25391 6.2837 3.31919 7.40916 4.63328 7.40916C5.94743 7.40916 7.01272 6.2837 7.01272 4.89538C7.01272 3.50707 5.94743 2.38153 4.63328 2.38153ZM4.63328 6.52714C3.78031 6.52707 3.08877 5.79653 3.08884 4.89531C3.08884 3.99416 3.78031 3.26355 4.63335 3.26355C5.48638 3.26363 6.17785 3.99416 6.17785 4.89531C6.17785 5.79653 5.48631 6.52714 4.63328 6.52714Z" fill="white"/>
<path d="M7.66296 2.28213C7.66296 2.60654 7.41402 2.86955 7.10695 2.86955C6.79982 2.86955 6.55087 2.60654 6.55087 2.28213C6.55087 1.95765 6.79982 1.69464 7.10695 1.69464C7.41402 1.69464 7.66296 1.95765 7.66296 2.28213Z" fill="white"/>
</g>
<defs>
<clipPath id="clip0_3599_1549">
<rect width="9.26719" height="9.79069" fill="white"/>
</clipPath>
</defs>
</svg>
